<svg id="visual" viewBox="0 0 900 600" width="900" height="600" xmlns="http://www.w3.org/2000/svg" xmlns:xlink="http://www.w3.org/1999/xlink" version="1.1"><rect x="0" y="0" width="900" height="600" fill="#1A1A1A"></rect><path d="M0 433L15 430.3C30 427.7 60 422.3 90 407.3C120 392.3 150 367.7 180 369.5C210 371.3 240 399.7 270 417.7C300 435.7 330 443.3 360 435.3C390 427.3 420 403.7 450 378.2C480 352.7 510 325.3 540 312.8C570 300.3 600 302.7 630 329.8C660 357 690 409 720 414C750 419 780 377 810 358C840 339 870 343 885 345L900 347L900 601L885 601C870 601 840 601 810 601C780 601 750 601 720 601C690 601 660 601 630 601C600 601 570 601 540 601C510 601 480 601 450 601C420 601 390 601 360 601C330 601 300 601 270 601C240 601 210 601 180 601C150 601 120 601 90 601C60 601 30 601 15 601L0 601Z" fill="#fff" stroke-linecap="round" stroke-linejoin="miter"></path></svg>